<?xml version="1.0" standalone="no"?>
<!DOCTYPE svg PUBLIC "-//W3C//DTD SVG 20010904//EN"
 "http://www.w3.org/TR/2001/REC-SVG-20010904/DTD/svg10.dtd">
<svg version="1.0" xmlns="http://www.w3.org/2000/svg"
 width="500.000000pt" height="500.000000pt" viewBox="0 0 500.000000 500.000000"
 preserveAspectRatio="xMidYMid meet">
<metadata>
Created by potrace 1.11, written by Peter Selinger 2001-2013
</metadata>
<g transform="translate(0.000000,500.000000) scale(0.100000,-0.100000)"
fill="#000000" stroke="none">
<path d="M4515 4913 c-159 -171 -214 -229 -288 -308 -41 -44 -85 -92 -97 -108
-12 -15 -26 -25 -31 -21 -5 3 -8 1 -7 -4 2 -4 -37 -52 -86 -105 -77 -84 -91
-95 -105 -85 -14 11 -14 11 -3 -3 10 -14 7 -22 -24 -55 -19 -22 -40 -38 -45
-37 -5 2 -8 -1 -6 -5 3 -11 -60 -82 -73 -82 -6 0 -9 -4 -6 -8 2 -4 -24 -36
-60 -71 -35 -35 -64 -65 -64 -67 0 -12 -51 -55 -59 -49 -6 3 -8 0 -5 -8 3 -8
-10 -27 -31 -46 -20 -17 -33 -31 -30 -31 3 0 -18 -24 -46 -52 -28 -29 -55 -52
-61 -50 -5 1 -7 -2 -4 -7 3 -5 -13 -29 -37 -53 -23 -25 -61 -66 -85 -91 -23
-26 -48 -47 -54 -47 -6 0 -9 -3 -5 -6 3 -3 -16 -29 -43 -58 -26 -28 -65 -69
-85 -91 -163 -176 -248 -267 -295 -316 -30 -32 -81 -87 -113 -123 -32 -37 -64
-63 -69 -60 -6 4 -8 3 -5 -3 3 -5 -23 -41 -58 -79 -36 -38 -65 -72 -65 -77 0
-4 -4 -5 -10 -2 -5 3 -10 2 -10 -2 0 -9 -22 -35 -117 -136 -24 -26 -49 -44
-55 -41 -7 4 -8 2 -4 -5 7 -11 -11 -32 -159 -186 -33 -35 -73 -79 -89 -99 -15
-20 -32 -33 -37 -30 -5 3 -9 -1 -9 -9 0 -7 -22 -34 -49 -59 -27 -26 -48 -48
-46 -50 2 -1 -3 -9 -11 -15 -11 -11 -16 -7 -30 22 -16 34 -16 37 2 58 10 12
12 16 4 10 -21 -20 -28 -16 -35 20 -4 17 -12 38 -17 45 -14 16 4 16 21 0 10
-11 11 -10 6 5 -4 9 -14 17 -22 17 -14 0 -14 2 0 22 8 13 22 22 31 22 9 -1 14
2 11 6 -3 5 6 17 20 28 13 11 21 22 17 26 -3 4 2 4 12 0 13 -5 17 -4 12 4 -7
12 32 44 45 36 4 -2 11 1 15 7 4 8 3 9 -4 5 -20 -12 -13 8 8 27 11 9 20 14 20
10 0 -4 8 4 17 17 10 14 29 34 42 45 14 11 32 28 40 37 8 9 18 15 23 12 5 -3
7 0 6 8 -2 7 3 12 11 10 12 -3 12 0 1 12 -7 9 -8 16 -3 16 5 0 9 8 10 18 1 9
4 32 6 49 2 18 1 30 -4 27 -5 -2 -14 4 -21 16 -7 11 -18 20 -24 20 -5 0 -19 8
-30 18 -10 10 -22 19 -27 19 -21 4 -77 28 -77 33 0 3 -12 7 -26 8 -14 1 -31 5
-37 9 -14 9 -25 11 -94 17 -29 2 -57 8 -64 12 -8 4 -9 3 -5 -4 5 -9 0 -9 -18
-2 -16 6 -27 6 -31 0 -4 -7 -13 -6 -26 0 -10 6 -19 7 -19 3 0 -7 -41 -13 -102
-16 -10 -1 -18 -4 -18 -7 0 -4 -6 -7 -12 -8 -7 0 -24 -3 -38 -7 -14 -4 -31 -7
-37 -7 -7 -1 -13 -6 -13 -12 0 -6 -5 -4 -10 4 -6 10 -10 11 -10 3 0 -7 -9 -13
-20 -13 -11 0 -20 -4 -20 -9 0 -5 -11 -8 -25 -6 -14 1 -25 -1 -25 -4 0 -10
-52 -31 -61 -25 -5 3 -9 0 -9 -7 0 -6 -8 -9 -20 -6 -13 3 -18 1 -13 -6 4 -6 0
-8 -10 -4 -11 4 -14 2 -11 -7 3 -9 -6 -16 -29 -20 -19 -4 -40 -13 -47 -21 -7
-8 -16 -13 -20 -10 -5 3 -15 -3 -22 -13 -7 -10 -23 -18 -35 -17 -14 1 -19 -3
-16 -12 3 -7 -1 -13 -9 -13 -8 0 -25 -9 -38 -20 -12 -11 -27 -17 -32 -14 -4 3
-7 2 -6 -3 2 -4 0 -9 -5 -10 -4 -1 -22 -16 -40 -33 -17 -16 -38 -30 -46 -30
-8 0 -12 -3 -9 -6 6 -6 -25 -42 -39 -46 -5 -1 -23 -20 -41 -43 -19 -22 -45
-50 -58 -61 -13 -12 -24 -26 -24 -32 0 -6 -6 -15 -13 -19 -7 -4 -21 -21 -32
-38 -10 -16 -25 -36 -32 -43 -7 -7 -13 -20 -13 -27 0 -7 -6 -20 -12 -27 -14
-14 -68 -119 -68 -130 0 -4 -5 -19 -12 -35 -6 -15 -12 -34 -14 -41 -1 -8 -6
-21 -10 -30 -9 -20 -8 -18 -17 -64 -5 -21 -11 -38 -15 -38 -4 0 -7 -12 -8 -27
0 -16 -4 -57 -8 -93 -5 -36 -9 -88 -10 -115 -1 -28 -5 -56 -9 -62 -4 -6 -3
-14 3 -18 7 -4 7 -12 0 -25 -6 -11 -6 -21 -1 -25 6 -3 6 -17 1 -35 -5 -16 -5
-32 -1 -35 12 -7 11 -58 -2 -73 -8 -10 -7 -12 4 -10 9 2 14 -7 15 -27 1 -16 2
-32 4 -35 1 -3 3 -21 5 -40 2 -30 16 -90 32 -140 3 -8 7 -28 8 -44 2 -16 9
-32 16 -37 11 -7 11 -9 -1 -9 -9 0 -11 -3 -4 -8 10 -7 57 -116 55 -127 -1 -3
5 -13 14 -21 8 -9 13 -20 10 -25 -4 -5 -3 -9 2 -9 4 0 13 -12 20 -26 13 -28
16 -23 -71 -118 -15 -17 -42 -49 -60 -70 -17 -22 -39 -47 -49 -58 -9 -10 -15
-18 -12 -18 3 0 -8 -20 -25 -44 -16 -25 -30 -49 -30 -55 0 -6 -4 -11 -8 -11
-8 0 -33 -46 -34 -60 0 -3 -7 -14 -14 -25 -8 -11 -14 -27 -14 -37 0 -10 -5
-18 -12 -18 -6 0 -9 -3 -5 -6 3 -4 0 -19 -9 -35 -8 -16 -12 -29 -9 -29 4 0 -1
-10 -9 -22 -9 -12 -16 -30 -16 -40 0 -10 -4 -18 -9 -18 -4 0 -6 -11 -4 -24 3
-13 0 -27 -6 -30 -35 -22 9 -26 270 -26 184 0 278 3 274 10 -3 6 -2 10 4 10 6
0 7 7 4 17 -4 11 -3 14 5 9 8 -5 10 -2 6 8 -3 9 -1 16 6 16 6 0 8 5 5 10 -3 6
-1 10 5 10 6 0 8 5 5 11 -4 5 1 19 11 30 9 10 14 19 9 19 -9 0 41 68 67 91 10
9 14 20 10 24 -4 5 1 5 11 2 10 -4 16 -3 13 1 -2 4 0 14 5 22 8 13 10 13 18 0
7 -9 6 -20 -2 -30 -10 -13 -10 -13 5 -2 10 8 14 20 11 29 -4 10 3 7 18 -8 13
-13 23 -27 22 -31 -2 -4 5 -4 14 -1 10 4 14 2 10 -4 -4 -6 1 -10 11 -9 9 0 16
-5 15 -11 -2 -7 0 -12 5 -12 21 4 32 -2 26 -13 -4 -7 -3 -10 1 -5 5 4 19 0 33
-9 13 -9 21 -11 17 -4 -5 8 0 7 14 -2 12 -7 21 -16 21 -21 0 -4 4 -5 10 -2 5
3 10 1 10 -6 0 -7 3 -10 6 -6 4 3 21 -1 38 -10 37 -19 191 -62 224 -63 13 0
21 -3 18 -8 -2 -4 8 -8 22 -8 100 -4 103 -4 96 -17 -6 -9 -4 -9 8 1 13 10 17
10 21 0 4 -10 6 -10 6 0 1 6 8 12 17 12 9 0 12 -5 8 -12 -6 -10 -4 -10 8 0 13
10 17 10 21 0 4 -10 6 -10 6 1 1 11 4 11 18 0 15 -12 16 -12 8 1 -7 13 -6 13
7 2 12 -10 18 -10 23 -1 6 8 10 7 16 -2 7 -11 9 -11 9 1 0 13 1 13 10 0 6 -9
10 -10 10 -3 0 8 16 11 44 10 24 -1 42 1 40 5 -2 3 14 5 36 3 22 -2 40 1 40 5
0 5 12 8 28 6 15 -1 33 2 40 7 6 5 12 6 12 2 0 -4 7 -2 15 5 8 7 15 10 15 7 0
-6 86 18 129 36 14 5 28 11 31 12 24 8 49 21 72 37 16 11 32 16 38 13 5 -3 10
-1 10 6 0 7 3 10 6 6 3 -3 17 6 31 21 20 22 26 24 33 12 8 -13 10 -13 10 1 0
16 40 59 40 43 0 -5 5 -2 10 6 9 13 11 13 20 0 10 -13 11 -13 9 0 -3 30 1 40
17 40 8 0 12 5 9 10 -3 6 -2 10 3 10 5 0 19 9 32 20 12 11 26 17 31 14 5 -3 6
2 3 11 -5 11 0 18 16 22 14 4 18 8 10 13 -8 5 -2 12 18 21 17 7 28 18 25 26
-3 6 7 24 21 38 14 14 23 25 20 25 -3 0 4 10 15 22 11 11 18 24 16 28 -3 5 2
11 11 14 9 4 14 9 10 13 -3 4 4 17 16 30 15 17 18 23 7 24 -8 0 -4 4 9 10 13
5 21 13 17 19 -3 5 1 20 10 33 8 13 12 27 8 32 -5 4 0 5 9 2 10 -3 20 -1 24 5
4 6 3 8 -4 4 -16 -10 -25 13 -12 29 7 8 9 15 4 15 -5 0 0 7 10 15 12 9 15 15
7 15 -11 0 -11 3 -1 15 7 8 9 15 5 15 -4 0 0 12 10 26 11 18 13 24 4 19 -8 -5
-5 2 6 15 11 13 15 20 8 16 -9 -5 -12 2 -10 23 1 19 6 26 12 21 7 -6 11 -2 11
10 0 10 -4 16 -9 13 -5 -3 -4 4 2 14 6 11 7 23 4 27 -3 3 -1 6 7 6 10 0 10 3
0 15 -9 11 -9 15 -1 15 7 0 10 4 7 9 -9 15 5 42 18 34 8 -5 8 -3 0 8 -13 16
-9 76 7 95 6 7 6 14 1 18 -6 3 -7 20 -2 41 4 19 5 35 1 35 -5 0 -5 20 -1 45 4
25 4 45 0 45 -8 0 -4 55 5 69 3 6 -2 11 -12 12 -10 0 -13 3 -6 6 10 3 10 10 2
25 -9 16 -8 19 3 12 7 -4 5 1 -4 12 -14 16 -15 23 -5 34 10 10 9 11 -2 5 -10
-6 -13 -4 -8 7 3 9 0 21 -6 27 -6 6 -8 11 -4 11 4 0 1 14 -8 30 -9 17 -13 30
-10 30 3 0 -3 17 -14 39 -11 21 -17 41 -14 45 4 3 1 6 -6 6 -7 0 -11 7 -8 14
4 11 1 13 -11 9 -9 -3 -14 -3 -10 2 4 4 -2 21 -14 38 -13 17 -16 27 -7 22 7
-5 -10 14 -38 41 -29 28 -53 56 -53 63 0 7 -4 9 -10 6 -5 -3 -10 1 -10 9 0 8
-5 18 -10 21 -6 4 -9 3 -8 -2 2 -4 -2 -8 -7 -8 -5 0 -9 4 -7 8 1 5 -2 6 -7 3
-5 -4 -12 -2 -16 4 -4 6 -10 8 -15 5 -5 -3 -12 0 -16 6 -4 8 -3 9 4 5 7 -4 12
-1 12 8 0 8 10 23 23 33 13 10 26 26 30 37 7 18 8 18 27 1 11 -10 17 -22 14
-26 -3 -5 2 -6 11 -3 13 5 15 1 11 -20 -3 -15 -1 -24 5 -21 5 4 7 11 4 16 -10
16 5 10 28 -11 19 -18 20 -22 7 -31 -12 -8 -11 -9 6 -5 14 4 27 -2 42 -19 12
-14 26 -25 32 -25 5 0 10 -8 10 -17 0 -9 2 -14 5 -11 8 8 121 -102 117 -114
-1 -5 2 -7 7 -4 5 4 17 -4 25 -16 9 -12 16 -19 16 -15 0 5 7 2 15 -7 18 -17
20 -30 3 -20 -7 4 -8 3 -4 -5 4 -6 12 -9 17 -5 5 3 23 -6 40 -20 34 -29 54
-32 96 -14 15 6 31 11 35 10 5 -1 7 4 5 11 -1 6 5 11 13 9 8 -2 12 0 8 4 -11
10 12 35 25 27 6 -3 7 -1 3 6 -4 7 2 15 16 20 13 6 17 10 10 10 -7 1 -10 6 -7
11 4 6 11 8 16 4 5 -3 8 0 7 8 -2 7 3 12 10 10 8 -1 11 1 8 6 -6 11 35 48 49
43 5 -1 7 1 3 4 -9 10 9 45 23 45 6 0 8 -4 5 -8 -3 -5 1 -9 9 -9 12 0 12 3 3
15 -10 11 -9 17 5 27 9 6 14 15 10 18 -3 4 2 7 12 7 10 0 16 3 12 6 -10 10 55
69 72 66 14 -2 14 -1 1 7 -12 8 -11 13 8 29 12 11 22 23 22 27 0 4 12 20 28
34 15 15 44 50 65 79 23 31 43 49 50 45 7 -3 9 -3 5 2 -8 8 31 63 75 107 15
16 25 28 22 28 -6 0 7 18 42 56 13 14 22 28 22 31 0 4 5 9 12 12 8 2 9 -1 4
-10 -5 -8 -4 -11 1 -6 5 5 9 16 9 25 0 9 6 16 13 14 8 -1 11 2 7 7 -3 6 3 19
15 31 11 11 18 20 14 20 -3 0 7 16 22 36 21 27 29 32 37 22 6 -9 7 -8 3 5 -7
23 23 70 40 63 7 -3 16 0 20 6 4 6 3 8 -4 4 -20 -12 -22 13 -2 27 11 7 17 17
12 22 -4 4 6 5 23 2 26 -4 27 -3 12 8 -21 15 -22 29 -1 21 8 -3 12 -2 9 4 -6
10 7 40 27 62 7 7 19 25 27 40 8 15 18 25 23 22 4 -3 8 2 8 11 0 9 10 26 23
37 12 11 16 16 8 13 -9 -5 -7 1 4 19 16 24 19 25 35 11 9 -8 20 -15 24 -15 5
0 -2 8 -14 18 -22 18 -22 19 -5 46 14 20 20 24 27 14 5 -9 7 -5 6 12 -2 13 2
25 9 25 6 0 15 4 20 9 5 5 3 6 -4 2 -17 -9 -16 -1 3 35 9 19 21 29 29 25 8 -3
17 -1 20 5 4 5 1 8 -7 7 -7 -2 -12 2 -11 8 3 19 75 134 84 134 5 0 6 7 3 15
-4 8 1 17 10 21 9 3 13 11 9 17 -3 5 2 16 12 24 11 7 16 13 12 13 -3 0 5 23
19 50 14 28 28 48 32 46 4 -2 8 8 9 22 0 15 6 28 12 30 6 2 11 12 11 21 0 10
3 21 8 25 4 4 8 11 8 14 7 31 18 51 27 45 6 -3 7 -1 3 6 -4 6 -3 17 2 24 5 7
13 27 17 45 4 18 13 36 20 39 8 2 11 12 8 20 -5 12 -3 14 7 8 9 -5 11 -4 6 4
-9 15 3 53 15 46 5 -3 6 0 3 8 -8 22 14 69 28 61 9 -5 9 -2 -1 9 -9 12 -10 17
-2 17 7 0 9 5 6 10 -4 6 3 35 14 65 12 30 21 57 21 60 2 25 14 66 21 71 4 2 6
10 3 18 -3 7 0 33 6 57 18 76 20 86 23 143 1 43 5 55 16 51 10 -4 11 -2 4 7
-5 7 -9 66 -9 131 1 72 -3 117 -9 117 -5 0 -3 5 5 10 10 6 11 10 3 10 -9 0
-12 13 -10 39 2 22 -1 37 -6 34 -5 -3 -7 3 -5 13 2 11 10 18 17 16 7 -1 10 2
6 7 -3 6 -13 7 -21 4 -11 -4 -15 0 -13 13 2 20 -3 36 -27 92 l-14 32 -77 0
-78 0 -80 -87z m-2095 -3084 c-5 -17 -9 -34 -8 -38 3 -26 -3 -41 -14 -35 -10
6 -10 5 -1 -7 6 -8 10 -24 8 -34 -2 -11 -4 -28 -4 -38 -1 -12 -6 -16 -13 -11
-10 5 -10 4 -2 -5 15 -16 5 -61 -13 -61 -8 0 -24 5 -35 11 -15 8 -19 8 -14 0
5 -7 -1 -10 -16 -7 -13 3 -36 5 -51 5 -17 1 -26 5 -22 12 4 6 14 8 22 5 8 -3
11 -1 8 5 -4 5 1 22 10 36 13 20 19 23 26 12 6 -10 8 -8 7 7 -2 24 51 103 70
104 7 0 11 4 7 9 -3 6 3 14 12 20 10 6 14 11 9 11 -7 0 12 30 20 30 1 0 -1
-14 -6 -31z m-416 -571 c-4 -13 -7 -28 -7 -34 0 -6 -6 -11 -14 -11 -17 0 -16
3 4 38 21 35 27 37 17 7z"/>
<path d="M2364 1758 l-19 -23 23 19 c21 18 27 26 19 26 -2 0 -12 -10 -23 -22z"/>
<path d="M2330 1696 c0 -2 8 -10 18 -17 15 -13 16 -12 3 4 -13 16 -21 21 -21
13z"/>
<path d="M2290 1650 c-11 -7 -11 -10 -2 -10 8 0 10 -5 6 -12 -4 -7 -3 -9 1 -5
7 6 17 37 12 37 -1 0 -9 -5 -17 -10z"/>
<path d="M2355 1620 c3 -5 8 -10 11 -10 2 0 4 5 4 10 0 6 -5 10 -11 10 -5 0
-7 -4 -4 -10z"/>
<path d="M4786 4958 c3 -5 10 -6 15 -3 13 9 11 12 -6 12 -8 0 -12 -4 -9 -9z"/>
<path d="M4855 4620 c-3 -5 -1 -10 4 -10 6 0 11 5 11 10 0 6 -2 10 -4 10 -3 0
-8 -4 -11 -10z"/>
<path d="M4846 4578 c3 -5 10 -6 15 -3 13 9 11 12 -6 12 -8 0 -12 -4 -9 -9z"/>
<path d="M4846 4542 c-3 -5 1 -9 9 -9 8 0 12 4 9 9 -3 4 -7 8 -9 8 -2 0 -6 -4
-9 -8z"/>
<path d="M4820 4406 c0 -2 8 -10 18 -17 15 -13 16 -12 3 4 -13 16 -21 21 -21
13z"/>
<path d="M4826 4342 c-3 -5 1 -9 9 -9 8 0 12 4 9 9 -3 4 -7 8 -9 8 -2 0 -6 -4
-9 -8z"/>
<path d="M4785 4160 c-3 -6 1 -7 9 -4 18 7 21 14 7 14 -6 0 -13 -4 -16 -10z"/>
<path d="M4786 4078 c3 -5 10 -6 15 -3 13 9 11 12 -6 12 -8 0 -12 -4 -9 -9z"/>
<path d="M4720 3940 c-12 -7 -10 -9 7 -7 12 0 19 5 17 9 -6 10 -6 10 -24 -2z"/>
<path d="M4715 3900 c-3 -5 -1 -10 4 -10 6 0 11 5 11 10 0 6 -2 10 -4 10 -3 0
-8 -4 -11 -10z"/>
<path d="M4686 3822 c-3 -5 1 -9 9 -9 8 0 12 4 9 9 -3 4 -7 8 -9 8 -2 0 -6 -4
-9 -8z"/>
<path d="M4630 3720 c0 -5 5 -10 10 -10 6 0 10 5 10 10 0 6 -4 10 -10 10 -5 0
-10 -4 -10 -10z"/>
<path d="M4613 3685 c0 -8 4 -12 9 -9 5 3 6 10 3 15 -9 13 -12 11 -12 -6z"/>
<path d="M4573 3551 c0 -11 5 -18 9 -15 4 3 5 11 1 19 -7 21 -12 19 -10 -4z"/>
<path d="M4536 3527 c3 -10 9 -15 12 -12 3 3 0 11 -7 18 -10 9 -11 8 -5 -6z"/>
<path d="M4509 3483 c-13 -16 -12 -17 4 -4 9 7 17 15 17 17 0 8 -8 3 -21 -13z"/>
<path d="M4530 3460 c0 -5 5 -10 11 -10 5 0 7 5 4 10 -3 6 -8 10 -11 10 -2 0
-4 -4 -4 -10z"/>
<path d="M4430 3340 c0 -5 9 -8 20 -7 21 1 18 10 -5 13 -8 1 -15 -2 -15 -6z"/>
<path d="M4310 3126 c0 -2 7 -7 16 -10 8 -3 12 -2 9 4 -6 10 -25 14 -25 6z"/>
<path d="M4296 3075 c-9 -26 -7 -32 5 -12 6 10 9 21 6 23 -2 3 -7 -2 -11 -11z"/>
<path d="M4210 2939 c0 -5 5 -7 10 -4 6 3 10 8 10 11 0 2 -4 4 -10 4 -5 0 -10
-5 -10 -11z"/>
<path d="M4164 2922 c4 -3 14 -7 22 -8 9 -1 13 0 10 4 -4 3 -14 7 -22 8 -9 1
-13 0 -10 -4z"/>
<path d="M4096 2742 c-2 -4 -1 -14 4 -22 7 -11 9 -9 7 8 -1 24 -3 26 -11 14z"/>
<path d="M2046 2485 c-11 -8 -15 -15 -9 -15 6 0 16 7 23 15 16 19 11 19 -14 0z"/>
<path d="M3850 2459 c0 -5 5 -7 10 -4 6 3 10 8 10 11 0 2 -4 4 -10 4 -5 0 -10
-5 -10 -11z"/>
<path d="M2015 2420 c3 -5 8 -10 11 -10 2 0 4 5 4 10 0 6 -5 10 -11 10 -5 0
-7 -4 -4 -10z"/>
<path d="M3779 2378 c-6 -20 -6 -39 0 -42 4 -3 7 6 7 20 0 20 -4 32 -7 22z"/>
<path d="M1926 2338 c3 -5 10 -6 15 -3 13 9 11 12 -6 12 -8 0 -12 -4 -9 -9z"/>
<path d="M1815 2281 c-3 -5 -2 -12 3 -15 5 -3 9 1 9 9 0 17 -3 19 -12 6z"/>
<path d="M3676 2202 c-3 -5 1 -9 9 -9 8 0 12 4 9 9 -3 4 -7 8 -9 8 -2 0 -6 -4
-9 -8z"/>
<path d="M1826 2178 c3 -5 10 -6 15 -3 13 9 11 12 -6 12 -8 0 -12 -4 -9 -9z"/>
<path d="M3630 2179 c0 -5 5 -7 10 -4 6 3 10 8 10 11 0 2 -4 4 -10 4 -5 0 -10
-5 -10 -11z"/>
<path d="M3595 2169 c-4 -6 -5 -12 -2 -15 2 -3 7 2 10 11 7 17 1 20 -8 4z"/>
<path d="M1886 2138 c3 -5 10 -6 15 -3 13 9 11 12 -6 12 -8 0 -12 -4 -9 -9z"/>
<path d="M3549 2103 c-13 -16 -12 -17 4 -4 16 13 21 21 13 21 -2 0 -10 -8 -17
-17z"/>
<path d="M2630 2069 c0 -5 -5 -7 -12 -3 -7 4 -8 3 -4 -5 6 -9 11 -9 22 0 17
14 18 19 4 19 -5 0 -10 -5 -10 -11z"/>
<path d="M2596 2047 c3 -10 9 -15 12 -12 3 3 0 11 -7 18 -10 9 -11 8 -5 -6z"/>
<path d="M3470 2019 c0 -5 5 -7 10 -4 6 3 10 8 10 11 0 2 -4 4 -10 4 -5 0 -10
-5 -10 -11z"/>
<path d="M2700 1966 c0 -2 8 -10 18 -17 15 -13 16 -12 3 4 -13 16 -21 21 -21
13z"/>
<path d="M3435 1940 c3 -5 8 -10 11 -10 2 0 4 5 4 10 0 6 -5 10 -11 10 -5 0
-7 -4 -4 -10z"/>
<path d="M2799 1913 c-13 -16 -12 -17 4 -4 16 13 21 21 13 21 -2 0 -10 -8 -17
-17z"/>
<path d="M2786 1878 c3 -5 10 -6 15 -3 13 9 11 12 -6 12 -8 0 -12 -4 -9 -9z"/>
<path d="M2829 1843 c-13 -16 -12 -17 4 -4 16 13 21 21 13 21 -2 0 -10 -8 -17
-17z"/>
<path d="M3320 1840 c-9 -6 -10 -10 -3 -10 6 0 15 5 18 10 8 12 4 12 -15 0z"/>
<path d="M3000 1726 c0 -2 8 -10 18 -17 15 -13 16 -12 3 4 -13 16 -21 21 -21
13z"/>
<path d="M2939 1488 c-5 -18 -6 -38 -1 -34 7 8 12 36 6 36 -2 0 -4 -1 -5 -2z"/>
<path d="M2935 1409 c-4 -6 -5 -12 -2 -15 2 -3 7 2 10 11 7 17 1 20 -8 4z"/>
<path d="M2916 1358 c3 -5 10 -6 15 -3 13 9 11 12 -6 12 -8 0 -12 -4 -9 -9z"/>
<path d="M2930 1299 c0 -5 5 -7 10 -4 6 3 10 8 10 11 0 2 -4 4 -10 4 -5 0 -10
-5 -10 -11z"/>
<path d="M2920 1246 c0 -2 8 -10 18 -17 15 -13 16 -12 3 4 -13 16 -21 21 -21
13z"/>
<path d="M2890 1059 c0 -5 5 -7 10 -4 6 3 10 8 10 11 0 2 -4 4 -10 4 -5 0 -10
-5 -10 -11z"/>
<path d="M2890 1019 c0 -5 5 -7 10 -4 6 3 10 8 10 11 0 2 -4 4 -10 4 -5 0 -10
-5 -10 -11z"/>
<path d="M2875 951 c-3 -5 -2 -12 3 -15 5 -3 9 1 9 9 0 17 -3 19 -12 6z"/>
<path d="M2870 896 c0 -2 8 -10 18 -17 15 -13 16 -12 3 4 -13 16 -21 21 -21
13z"/>
<path d="M2733 605 c0 -8 4 -12 9 -9 5 3 6 10 3 15 -9 13 -12 11 -12 -6z"/>
<path d="M2775 609 c-4 -6 -5 -12 -2 -15 2 -3 7 2 10 11 7 17 1 20 -8 4z"/>
<path d="M2693 545 c0 -8 4 -12 9 -9 5 3 6 10 3 15 -9 13 -12 11 -12 -6z"/>
<path d="M866 222 c-3 -5 1 -9 9 -9 8 0 12 4 9 9 -3 4 -7 8 -9 8 -2 0 -6 -4
-9 -8z"/>
<path d="M2415 221 c-3 -5 -2 -12 3 -15 5 -3 9 1 9 9 0 17 -3 19 -12 6z"/>
<path d="M853 185 c0 -8 4 -12 9 -9 5 3 6 10 3 15 -9 13 -12 11 -12 -6z"/>
<path d="M787 119 c7 -7 15 -10 18 -7 3 3 -2 9 -12 12 -14 6 -15 5 -6 -5z"/>
<path d="M2036 67 c3 -10 9 -15 12 -12 3 3 0 11 -7 18 -10 9 -11 8 -5 -6z"/>
<path d="M1955 40 c3 -5 8 -10 11 -10 2 0 4 5 4 10 0 6 -5 10 -11 10 -5 0 -7
-4 -4 -10z"/>
</g>
</svg>
